<?xml version="1.0" standalone="no"?>
<!DOCTYPE svg PUBLIC "-//W3C//DTD SVG 20010904//EN"
 "http://www.w3.org/TR/2001/REC-SVG-20010904/DTD/svg10.dtd">
<svg version="1.0" xmlns="http://www.w3.org/2000/svg"
 width="100.000000pt" height="100.000000pt" viewBox="0 0 100.000000 100.000000"
 preserveAspectRatio="xMidYMid meet">
<metadata>
Created by potrace 1.11, written by Peter Selinger 2001-2013
</metadata>
<g transform="translate(0.000000,100.000000) scale(0.100000,-0.100000)"
fill="#000000" stroke="none">
<path d="M283 768 c-152 -84 -225 -129 -232 -146 -15 -32 -14 -64 5 -90 14
-20 14 -24 0 -44 -20 -28 -20 -65 -2 -99 11 -22 11 -30 0 -50 -20 -36 -17 -75
9 -103 18 -21 46 -31 156 -56 73 -16 143 -32 155 -34 11 -2 42 -9 69 -15 117
-27 100 -32 317 91 110 62 200 119 200 126 0 19 -2 18 -217 -103 -156 -89
-193 -106 -218 -101 -16 3 -84 17 -150 31 -66 15 -129 28 -140 31 -135 26
-165 42 -165 84 0 24 21 60 36 60 3 0 96 -20 207 -45 111 -25 212 -47 223 -49
13 -3 54 14 100 41 44 25 106 60 139 78 150 83 179 101 183 113 2 6 -1 12 -8
12 -6 0 -98 -49 -204 -109 -185 -104 -196 -109 -232 -101 -22 5 -50 11 -64 14
-14 2 -64 14 -112 25 -47 11 -101 23 -120 27 -18 3 -37 7 -43 8 -5 2 -27 6
-48 11 -40 8 -57 28 -57 68 0 52 24 55 178 22 78 -17 107 -16 86 4 -8 8 -77
25 -194 47 -44 9 -70 32 -70 63 0 41 28 63 68 51 18 -5 35 -9 37 -9 8 0 76
-14 265 -55 l115 -25 185 104 c206 116 228 130 218 141 -7 6 -350 86 -424 98
-25 4 -69 -16 -251 -116z"/>
<path d="M761 544 c-102 -57 -195 -107 -207 -110 -12 -3 -37 -1 -57 4 -19 5
-40 6 -46 2 -20 -12 9 -27 64 -34 43 -5 57 -2 97 21 26 16 115 66 198 112 82
46 150 90 150 97 0 8 -3 14 -7 14 -5 0 -91 -48 -192 -106z"/>
<path d="M359 529 c0 -2 -2 -35 -3 -72 -2 -66 5 -90 19 -66 5 7 15 3 30 -11
l22 -21 2 81 c2 73 0 80 -18 80 -11 0 -26 3 -35 6 -9 3 -16 5 -17 3z"/>
</g>
</svg>
