<?xml version="1.0" standalone="no"?>
<!DOCTYPE svg PUBLIC "-//W3C//DTD SVG 20010904//EN"
 "http://www.w3.org/TR/2001/REC-SVG-20010904/DTD/svg10.dtd">
<svg version="1.0" xmlns="http://www.w3.org/2000/svg"
 width="161.000000pt" height="161.000000pt" viewBox="0 0 161.000000 161.000000"
 preserveAspectRatio="xMidYMid meet">
<metadata>
Created by potrace 1.11, written by Peter Selinger 2001-2013
</metadata>
<g transform="translate(0.000000,161.000000) scale(0.100000,-0.100000)"
fill="#000000" stroke="none">
<path d="M822 1455 c-129 -74 -244 -140 -256 -148 -20 -13 -22 -22 -20 -103 1
-49 2 -90 3 -92 1 -4 134 69 152 85 9 7 19 10 22 6 4 -3 7 -51 7 -105 0 -54 3
-98 8 -97 4 0 45 24 92 52 l85 52 2 60 c0 33 2 83 2 110 l1 50 68 36 c66 34
67 36 72 81 3 25 3 69 0 96 l-5 50 -233 -133z"/>
<path d="M445 1479 c-93 -55 -177 -103 -185 -107 -52 -24 -130 -75 -131 -85
-6 -48 -3 -163 4 -168 5 -4 42 13 82 37 40 24 77 44 84 44 7 0 11 -32 11 -101
0 -55 3 -99 8 -97 32 14 162 91 170 101 6 7 13 60 14 117 l3 103 70 41 69 41
0 85 c0 67 -3 85 -14 87 -8 1 -91 -43 -185 -98z"/>
<path d="M1218 1442 c-130 -75 -240 -141 -245 -145 -8 -8 -13 -187 -5 -187 4
0 74 39 140 77 l42 25 0 -106 c0 -58 2 -106 5 -106 2 0 44 24 92 53 l89 52 -1
95 c-1 52 2 102 7 112 4 9 37 33 73 53 36 20 65 41 66 48 0 7 1 46 1 87 1 57
-2 75 -13 77 -8 1 -121 -60 -251 -135z"/>
<path d="M379 952 l-254 -147 0 -83 c0 -46 2 -87 5 -91 3 -5 43 14 90 41 l85
49 3 -106 c1 -58 6 -105 10 -104 4 0 45 24 92 52 l85 52 3 108 3 108 32 19
c18 10 37 24 44 29 7 6 16 11 21 11 5 0 18 8 28 18 16 14 19 30 18 100 -1 45
-3 85 -6 87 -2 3 -119 -62 -259 -143z"/>
<path d="M889 1004 c-90 -52 -193 -111 -229 -130 -115 -62 -113 -59 -115 -159
0 -47 1 -88 5 -90 3 -2 42 19 88 46 45 27 85 49 87 49 3 0 5 -48 5 -106 l0
-106 68 38 c128 71 121 60 120 174 0 54 3 104 6 109 4 5 33 25 66 43 33 18 62
40 65 49 7 21 10 168 3 174 -2 3 -78 -38 -169 -91z"/>
<path d="M1430 1073 c-95 -53 -397 -227 -431 -248 l-35 -23 1 -88 c0 -51 5
-88 10 -87 6 1 46 22 90 48 l80 45 3 -106 3 -105 67 37 c126 70 118 58 117
174 -1 114 -4 108 88 159 31 18 57 38 58 44 3 34 1 168 -2 172 -2 2 -24 -8
-49 -22z"/>
<path d="M516 542 c-65 -37 -134 -76 -154 -88 -117 -66 -218 -126 -227 -135
-15 -15 -14 -179 1 -179 7 0 46 20 88 45 41 24 78 40 81 35 3 -5 5 -48 4 -95
-1 -47 1 -89 5 -92 6 -7 25 1 91 40 101 58 95 47 95 163 l0 105 63 39 c34 21
67 43 72 48 10 8 12 168 3 177 -2 2 -57 -26 -122 -63z"/>
<path d="M819 476 c-124 -72 -237 -138 -249 -147 -22 -14 -24 -23 -25 -103
l-1 -87 25 6 c14 4 28 11 29 16 2 5 8 9 12 9 5 0 32 13 60 30 28 16 53 30 55
30 3 0 5 -45 5 -100 0 -67 4 -100 11 -100 6 0 49 23 95 50 l83 51 -1 100 c0
54 4 105 10 112 6 7 38 28 71 47 l61 35 1 50 c2 68 -1 119 -9 126 -4 3 -109
-53 -233 -125z"/>
<path d="M1244 478 c-126 -71 -241 -139 -255 -149 -24 -17 -25 -22 -24 -101 1
-46 3 -86 4 -90 0 -3 40 16 89 43 l87 49 3 -100 c2 -71 6 -100 15 -100 7 1 48
22 92 49 l80 48 0 100 c1 61 5 107 12 115 7 7 39 29 72 48 42 23 61 40 62 54
2 44 0 159 -4 162 -1 2 -106 -56 -233 -128z"/>
</g>
</svg>
